<svg width="44" height="49" viewBox="0 0 44 49" fill="none" xmlns="http://www.w3.org/2000/svg">
<path d="M1 36.406L22.0711 48.5416L43.1423 36.406V12.1354L22.0711 0L1 12.1354V36.406Z" fill="#FE005B"/>
<path d="M13.1901 30.2824C11.5058 30.2824 10.1842 29.8087 9.22509 28.8613C8.27769 27.9139 7.80399 26.5454 7.80399 24.7559V17.8259H10.0848V24.6682C10.0848 25.9314 10.3538 26.8495 10.8918 27.4227C11.4415 27.9958 12.2135 28.2823 13.2076 28.2823C14.2018 28.2823 14.9679 27.9958 15.506 27.4227C16.044 26.8495 16.313 25.9314 16.313 24.6682V17.8259H18.5587V24.7559C18.5587 26.5454 18.0791 27.9139 17.12 28.8613C16.1726 29.8087 14.8627 30.2824 13.1901 30.2824ZM21.7528 30.1069V17.8259H26.8056C27.8934 17.8259 28.8232 18.0013 29.5952 18.3522C30.3788 18.7031 30.9812 19.2061 31.4022 19.861C31.8233 20.516 32.0338 21.2938 32.0338 22.1944C32.0338 23.095 31.8233 23.8728 31.4022 24.5278C30.9812 25.1828 30.3788 25.6858 29.5952 26.0366C28.8232 26.3875 27.8934 26.563 26.8056 26.563H23.016L24.0336 25.4928V30.1069H21.7528ZM24.0336 25.7384L23.016 24.6331H26.7003C27.7062 24.6331 28.4606 24.4226 28.9636 24.0015C29.4782 23.5687 29.7355 22.9664 29.7355 22.1944C29.7355 21.4108 29.4782 20.8084 28.9636 20.3874C28.4606 19.9663 27.7062 19.7558 26.7003 19.7558H23.016L24.0336 18.6329V25.7384ZM34.4126 26.0366L33.9915 17.8259H36.5881L36.1495 26.0366H34.4126ZM35.2898 30.2297C34.8804 30.2297 34.5412 30.0952 34.2722 29.8262C34.0032 29.5572 33.8687 29.2356 33.8687 28.8613C33.8687 28.487 34.0032 28.1712 34.2722 27.9139C34.5412 27.6449 34.8804 27.5104 35.2898 27.5104C35.6992 27.5104 36.0325 27.6449 36.2898 27.9139C36.5471 28.1712 36.6758 28.487 36.6758 28.8613C36.6758 29.2356 36.5471 29.5572 36.2898 29.8262C36.0325 30.0952 35.6992 30.2297 35.2898 30.2297Z" fill="white"/>
</svg>
